<?xml version="1.0" encoding="UTF-8"?><svg id="Layer_2" xmlns="http://www.w3.org/2000/svg" viewBox="0 0 640.68 124.21"><defs><style>.cls-1{fill:#fff;}</style></defs><g id="Layer_1-2"><path class="cls-1" d="M123.34,77.15c1.08-.84,2.16-1.56,3.06-1.98.06-2.4.18-7.2.24-7.86l-.3-18.96-3.66-.54c-.3-.06.36-3.36.66-3.3,1.14.12,2.76.18,4.44.18,3.78,0,8.22-.18,9.96-.42.3,0-.24,3.36-.54,3.36l-2.88.6-.48,14.22.42,12.96c3.84-.12,8.4-.6,10.68-1.08.48-.6,1.56-2.64,2.52-4.56.12-.24,2.82.66,2.82.84-.12,1.98-1.92,9.12-2.28,9.12-.84,0-9.84-.24-12.9-.24s-8.76.06-11.16.18c-.24,0-.78-2.34-.6-2.52Z"/><path class="cls-1" d="M152.56,77.15c.84-.66,2.04-1.38,3.06-1.98.12-1.62.18-3.48.18-4.32l-.24-22.5-3.66-.54c-.3-.06.36-3.36.66-3.3,1.14.12,2.76.18,4.44.18,3.78,0,8.22-.18,9.96-.42.3,0-.24,3.36-.54,3.36l-2.94.6c-.18,3.72-.3,11.4-.3,13.74,0,3.18.12,10.32.24,13.86,1.2.18,4.08.72,5.04,1.02l.36.66c.06.42-.84,2.16-1.02,2.16-2.34-.12-5.52-.18-8.34-.18-2.52,0-4.8.06-6.3.18-.24,0-.78-2.34-.6-2.52Z"/><path class="cls-1" d="M180.52,52.13l.12,10.8.36,12.72c1.8.36,5.1.9,5.94,1.2l.36.66c.06.48-.84,2.16-1.02,2.16-2.34-.12-5.46-.18-8.34-.18-2.52,0-4.86.06-6.36.18-.18,0-.78-2.34-.48-2.52.84-.72,2.16-1.62,3.3-2.16.78-6.84,1.08-20.58,1.2-26.52l-5.16-.66c-.24-.06.36-3.3.66-3.3,1.26.12,3.06.12,4.86.12,3.78,0,7.68-.12,8.16-.18,2.28,5.88,13.68,18.36,19.86,26.52-.6-7.5-.42-15.42-.9-22.44l-4.5-.72c-.3-.06.36-3.36.72-3.3,1.14.12,2.64.18,4.26.18,3.48,0,7.5-.18,9.24-.42.36,0-.18,3.36-.54,3.36l-3,.72c-.3,2.46-.6,6.6-.6,9.6,0,9.12-.6,18.18-.06,22.14,0,.18-5.7.18-5.7,0-3.18-4.98-18.66-20.82-22.38-27.96Z"/><path class="cls-1" d="M214.24,63.41c0-3.48.66-6.72,2.46-9.9,3.3-3.9,9.36-8.76,16.02-9.96,5.16.06,10.92,2.46,14.1,4.2.48.3-2.22,6.18-3,6.18-.3,0-8.46-5.28-13.26-5.28-2.22,0-5.16,1.62-6.24,2.58-1.5,2.4-2.58,5.4-2.58,8.94s1.44,7.74,3.84,10.38c2.1,2.4,5.1,4.5,9.6,4.5,2.04,0,10.2-4.2,10.44-4.2.66,0,.72,6,.18,6.24-2.76,1.2-11.22,3.42-13.92,3.42-9.96,0-17.64-7.32-17.64-17.1Z"/><path class="cls-1" d="M249.34,63.05c0-2.52.72-6.12,1.98-7.98,2.04-3.66,7.02-9.42,13.08-11.1,1.38-.3,2.7-.42,4.26-.42,7.98,0,16.2,6.66,16.2,16.86,0,2.88-1.2,6.48-1.98,8.16-2.34,5.16-7.56,10.02-12.96,11.52-1.38.36-2.82.42-4.32.42-6.18,0-16.26-4.98-16.26-17.46ZM272.98,74.93c1.86-1.98,3.9-6,3.9-10.56,0-8.82-4.8-15.54-12.54-15.54-1.08,0-2.88.3-3.48.66-1.5,1.44-3.96,5.22-3.96,10.56,0,8.82,5.76,15.42,12.66,15.42.6,0,2.22-.12,3.42-.54Z"/><path class="cls-1" d="M287.62,77.15c1.08-.84,2.16-1.56,3.06-1.98.06-2.4.18-7.2.24-7.86l-.3-18.96-3.66-.54c-.3-.06.36-3.36.66-3.3,1.14.12,2.76.18,4.44.18,3.78,0,8.22-.18,9.96-.42.3,0-.24,3.36-.54,3.36l-2.88.6-.48,14.22.42,12.96c3.84-.12,8.4-.6,10.68-1.08.48-.6,1.56-2.64,2.52-4.56.12-.24,2.82.66,2.82.84-.12,1.98-1.92,9.12-2.28,9.12-.84,0-9.84-.24-12.9-.24s-8.76.06-11.16.18c-.24,0-.78-2.34-.6-2.52Z"/><path class="cls-1" d="M326.26,52.13l.12,10.8.36,12.72c1.8.36,5.1.9,5.94,1.2l.36.66c.06.48-.84,2.16-1.02,2.16-2.34-.12-5.46-.18-8.34-.18-2.52,0-4.86.06-6.36.18-.18,0-.78-2.34-.48-2.52.84-.72,2.16-1.62,3.3-2.16.78-6.84,1.08-20.58,1.2-26.52l-5.16-.66c-.24-.06.36-3.3.66-3.3,1.26.12,3.06.12,4.86.12,3.78,0,7.68-.12,8.16-.18,2.28,5.88,13.68,18.36,19.86,26.52-.6-7.5-.42-15.42-.9-22.44l-4.5-.72c-.3-.06.36-3.36.72-3.3,1.14.12,2.64.18,4.26.18,3.48,0,7.5-.18,9.24-.42.36,0-.18,3.36-.54,3.36l-3,.72c-.3,2.46-.6,6.6-.6,9.6,0,9.12-.6,18.18-.06,22.14,0,.18-5.7.18-5.7,0-3.18-4.98-18.66-20.82-22.38-27.96Z"/><path class="cls-1" d="M374.86,77.15c.84-.66,1.92-1.38,2.94-1.92.12-3.84.24-10.92.36-13.98l-.3-12.9-3.66-.54c-.3-.06.36-3.36.66-3.3,1.14.12,2.76.18,4.44.18,3.78,0,8.22-.18,9.96-.42.3,0-.24,3.36-.54,3.36l-2.82.6-.24,10.26s6.12.24,7.02.24c.96,0,9.96-.3,9.96-.3-.06-3.54-.18-7.74-.18-10.08l-3.66-.54c-.3-.06.3-3.36.66-3.3,1.14.12,2.76.18,4.44.18,3.78,0,8.16-.18,9.9-.42.36,0-.18,3.36-.54,3.36l-2.82.6c-.18,3.48-.36,10.26-.36,13.98,0,3.48.18,6.96.36,13.62,1.2.18,3.96.72,4.92,1.02l.3.66c.12.42-.84,2.16-.96,2.16-2.34-.12-5.52-.18-8.4-.18-2.46,0-4.8.06-6.3.18-.18,0-.78-2.34-.54-2.52.78-.66,1.98-1.38,3.06-1.98,0-1.44.06-3.12.12-4.44,0-2.28.06-5.58,0-8.58l-8.52-.24c-1.02,0-8.52.24-8.52.24l-.06,5.64c0,2.82.12,6.12.24,8.04,1.14.18,4.02.72,4.98,1.02l.36.66c.06.48-.84,2.16-1.02,2.16-2.34-.12-5.52-.18-8.34-.18-2.52,0-4.8.06-6.3.18-.24,0-.78-2.34-.6-2.52Z"/><path class="cls-1" d="M418,77.15c.84-.66,2.04-1.38,3.06-1.98.12-1.62.18-3.48.18-4.32l-.24-22.5-3.66-.54c-.3-.06.36-3.36.66-3.3,1.14.12,2.76.18,4.44.18,3.78,0,8.22-.18,9.96-.42.3,0-.24,3.36-.54,3.36l-2.94.6c-.18,3.72-.3,11.4-.3,13.74,0,3.18.12,10.32.24,13.86,1.2.18,4.08.72,5.04,1.02l.36.66c.06.42-.84,2.16-1.02,2.16-2.34-.12-5.52-.18-8.34-.18-2.52,0-4.8.06-6.3.18-.24,0-.78-2.34-.6-2.52Z"/><path class="cls-1" d="M435.82,63.53c0-5.04,1.44-8.28,2.46-10.02,2.88-3.24,10.02-9.54,16.32-9.96,6.18.12,12.18,2.88,14.16,3.84.42.42-2.46,6.06-3,6.06-1.44-.78-9.78-4.92-13.44-4.92-2.58,0-5.64,2.04-6.36,2.58-.54.78-2.52,3.9-2.52,8.88,0,6.84,4.02,16.32,14.34,16.32,2.04-.6,3.12-1.44,4.02-2.16-.06-2.52-.18-5.04-.3-6.84l-4.74-.78c-.36,0,.3-3.3.66-3.3,1.14.12,3.6.24,6.3.24,1.38,0,5.88-.18,7.68-.48.36,0-.18,3.36-.54,3.36l-2.28.54c-.18,2.34-.42,6.12-.72,10.98-2.64,1.32-11.82,2.52-15.36,2.52-8.34,0-16.68-6.96-16.68-16.86Z"/><path class="cls-1" d="M473.8,77.15c.84-.66,1.92-1.38,2.94-1.92.12-3.84.24-10.92.36-13.98l-.3-12.9-3.66-.54c-.3-.06.36-3.36.66-3.3,1.14.12,2.76.18,4.44.18,3.78,0,8.22-.18,9.96-.42.3,0-.24,3.36-.54,3.36l-2.82.6-.24,10.26s6.12.24,7.02.24c.96,0,9.96-.3,9.96-.3-.06-3.54-.18-7.74-.18-10.08l-3.66-.54c-.3-.06.3-3.36.66-3.3,1.14.12,2.76.18,4.44.18,3.78,0,8.16-.18,9.9-.42.36,0-.18,3.36-.54,3.36l-2.82.6c-.18,3.48-.36,10.26-.36,13.98,0,3.48.18,6.96.36,13.62,1.2.18,3.96.72,4.92,1.02l.3.66c.12.42-.84,2.16-.96,2.16-2.34-.12-5.52-.18-8.4-.18-2.46,0-4.8.06-6.3.18-.18,0-.78-2.34-.54-2.52.78-.66,1.98-1.38,3.06-1.98,0-1.44.06-3.12.12-4.44,0-2.28.06-5.58,0-8.58l-8.52-.24c-1.02,0-8.52.24-8.52.24l-.06,5.64c0,2.82.12,6.12.24,8.04,1.14.18,4.02.72,4.98,1.02l.36.66c.06.48-.84,2.16-1.02,2.16-2.34-.12-5.52-.18-8.34-.18-2.52,0-4.8.06-6.3.18-.24,0-.78-2.34-.6-2.52Z"/><path class="cls-1" d="M530.2,80.09s-8.22-22.5-11.58-31.32l-3.3-.96c-.36-.06.3-3.36.66-3.3,1.26.12,3.48.18,5.82.18,3.78,0,7.98-.24,9.84-.42.3-.06-.3,3.36-.6,3.36l-3.72,1.26c2.22,6.84,5.7,15.78,8.46,23.52,2.64-6.72,4.38-11.22,6.48-16.68-.96-2.7-1.92-5.22-2.52-6.96l-2.52-.96c-.3-.24.36-3.36.72-3.3,1.26.12,3.3.18,5.46.18,3.48,0,7.32-.24,9.18-.42.3-.06-.3,3.36-.6,3.36l-3.78,1.2c2.16,7.02,5.7,16.2,8.52,24,3.9-9.9,5.88-15.84,8.28-23.88l-5.04-1.14c-.3-.06.36-3.36.66-3.3,1.14.12,2.64.18,4.2.18,3.42,0,7.26-.18,9-.42.36,0-.18,3.36-.54,3.36l-2.64,1.02-13.14,31.44h-6.54l-6.6-18.24c-2.52,6.06-5.1,12.18-7.68,18.24h-6.48Z"/><path class="cls-1" d="M566.86,77.57c.6-.6,1.86-1.5,3-2.1,2.82-6.18,7.44-16.5,13.38-31.2h6.12s7.44,20.1,12.36,31.8c1.26.3,2.46.6,3,.84l.48.66c0,.72-.72,2.04-.78,2.04-2.34-.12-5.1-.18-7.68-.18-2.28,0-4.44.06-6.12.18-.12,0-.72-2.16-.6-2.22.54-.48,1.74-1.2,2.82-1.74-.72-2.16-1.8-5.16-2.82-8.1l-4.14-.06-7.8.12c-1.08,3.06-2.04,6-2.82,8.34,1.92.3,4.2.66,5.4.9l.42.66c0,.66-.66,2.1-.78,2.1-2.34-.12-4.98-.12-7.38-.12-2.1,0-4.02.06-5.52.12-.24,0-.66-1.92-.54-2.04ZM588.64,63.95l-4.5-12.36c-1.68,3.84-3.3,8.16-4.8,12.42l9.3-.06Z"/><path class="cls-1" d="M610.66,77.15c.9-.72,2.22-1.56,3.3-2.1l.24-10.98-10.8-15-2.88-1.26c-.3-.06.6-3.36.9-3.3,1.5.18,3.42.18,5.46.18,3.18-.06,6.54-.24,8.4-.42.3-.06-.3,3.36-.6,3.36l-3.18,1.08c2.04,3.18,5.46,7.86,7.8,10.74,2.52-2.88,5.58-6.9,7.98-10.44l-4.8-1.2c-.36-.06.3-3.36.66-3.3,1.14.12,2.52.18,4.02.18,3.18,0,6.66-.18,8.4-.42.3,0-.24,3.36-.54,3.36l-2.58,1.2c-2.64,3.42-8.28,10.92-10.68,14.1-.12,4.44-.12,8.7-.12,12.78.96.24,3.36.78,4.56,1.14.12.18.24.42.36.66.06.42-.84,2.16-1.02,2.16-2.34-.12-5.34-.18-8.16-.18-2.4,0-4.68.06-6.18.18-.18,0-.78-2.34-.54-2.52Z"/><path class="cls-1" d="M252.26,105.33h5.82c2.34,0,3.76,1.3,3.69,3.28-.04,1.51-.88,2.34-1.69,2.7v.07c.81.25,1.85,1.06,1.85,2.79,0,2.02-1.15,3.38-3.82,3.38h-5.85v-12.23ZM255.11,110.46h2.48c.81,0,1.37-.54,1.37-1.48,0-.83-.49-1.37-1.37-1.37h-2.48v2.85ZM255.11,115.32h2.47c.92,0,1.48-.54,1.48-1.48s-.61-1.46-1.46-1.46h-2.48v2.94Z"/><path class="cls-1" d="M273.12,105.33h2.99l4.2,12.23h-3.51l-.65-2.23h-3.76l-.61,2.23h-2.67l4.01-12.23ZM272.74,113.27h3.06l-1.58-4.99-1.48,4.99Z"/><path class="cls-1" d="M288.21,105.33h5.47c2.39,0,3.89,1.76,3.89,4.03,0,2.48-1.49,4-3.89,4h-2.49v4.2h-2.99v-12.23ZM291.19,111.24h1.93c.99,0,1.62-.59,1.62-1.78,0-.99-.63-1.75-1.64-1.75h-1.91v3.53Z"/><path class="cls-1" d="M313.25,107.82h-3.1v9.74h-2.86v-9.74h-3.02v-2.48h8.98v2.48Z"/><path class="cls-1" d="M324.21,105.33v12.23h-2.84v-12.23h2.84Z"/><path class="cls-1" d="M338.41,114.3c0-.76-.54-1.12-1.67-1.44l-1.35-.38c-2.12-.59-3.06-1.95-3.06-3.53,0-2.41,1.8-3.8,4.5-3.8,1.6,0,3.19.47,4.34,1.19l-.65,2.25c-.97-.85-2.11-1.4-3.31-1.4-1.04,0-1.67.49-1.67,1.31,0,.61.36.94,1.64,1.31l1.39.41c2.18.67,3.13,1.85,3.13,3.58,0,2.63-2.02,3.92-4.68,3.92-2.11,0-3.73-.67-4.84-1.51l.72-2.25c1.08,1.01,2.39,1.73,3.75,1.73.97,0,1.78-.47,1.78-1.4Z"/><path class="cls-1" d="M357.63,107.82h-3.1v9.74h-2.86v-9.74h-3.02v-2.48h8.98v2.48Z"/><path class="cls-1" d="M384.44,106.86l-1.21,2.41c-.81-1.12-1.87-1.64-2.88-1.64-2.03,0-3.06,1.62-3.06,3.83,0,2.09,1.06,3.78,3.1,3.78,1.03,0,2.05-.56,2.84-1.64l1.21,2.41c-1.15,1.12-2.67,1.71-4.45,1.71-3.69,0-5.74-2.79-5.74-6.27s2.05-6.32,5.74-6.32c1.78,0,3.33.59,4.45,1.71Z"/><path class="cls-1" d="M394.98,105.33v4.79h4.65v-4.79h2.84v12.23h-2.84v-4.9h-4.65v4.9h-2.84v-12.23h2.84Z"/><path class="cls-1" d="M410.57,113.07v-7.74h2.83v7.31c0,1.96,1.01,2.61,2.25,2.61s2.2-.63,2.2-2.75v-7.17h2.34v7.45c0,3.92-2.25,4.95-4.66,4.95-2.65,0-4.95-1.04-4.95-4.66Z"/><path class="cls-1" d="M435.66,111.92c.72.22,1.28.7,1.66,2.02l.67,2.14c.11.34.27.54.59.54v.94h-2.07c-.83,0-1.31-.29-1.53-1.31l-.63-2.14c-.27-.86-.54-1.22-1.46-1.22h-1.78v4.68h-2.84v-12.23h5.96c2.4,0,3.49,1.67,3.49,3.49,0,2-1.22,2.79-2.05,3.04v.05ZM431.11,110.77h2.29c.76,0,1.46-.4,1.46-1.55,0-1.01-.63-1.51-1.48-1.51h-2.27v3.06Z"/><path class="cls-1" d="M454.92,106.86l-1.21,2.41c-.81-1.12-1.87-1.64-2.88-1.64-2.03,0-3.06,1.62-3.06,3.83,0,2.09,1.06,3.78,3.1,3.78,1.03,0,2.05-.56,2.84-1.64l1.21,2.41c-1.15,1.12-2.67,1.71-4.45,1.71-3.69,0-5.74-2.79-5.74-6.27s2.05-6.32,5.74-6.32c1.78,0,3.33.59,4.45,1.71Z"/><path class="cls-1" d="M465.11,105.33v4.79h4.65v-4.79h2.84v12.23h-2.84v-4.9h-4.65v4.9h-2.84v-12.23h2.84Z"/><polygon class="cls-1" points="640.68 91.13 640.68 96.7 108.5 96.7 109.27 91.13 640.68 91.13"/><path class="cls-1" d="M640.68,26.45v5.57H117.52l.07-.48c.24-1.72.23-3.43,0-5.09h523.09Z"/><path class="cls-1" d="M59.57,106.28c-4.53.31-9,1.21-13.55,1.4-4.7.2-9.21-.59-13.87-.84-.88-.04-1.74-.05-2.63-.01-.23.01-.46.02-.69.02-.2.01-.45-.01-.63.04.18.07.36.13.53.2,2.11.8,4.19,1.66,6.35,2.32,3.47,1.06,7.11,1.4,10.71,1.72,2.08.19,4.16.32,6.24.4,1.77.07,3.93-.23,5.61.44-.63.51-1.83.45-2.6.52-1,.1-2.01.18-3.02.24-2.07.12-4.14.17-6.21.13-.3-.01-1,.31-.71.38.49.11,1.52.49,1.98.66.87.33,1.75.65,2.63.98l2.43.9c1.38.51,2.82.77,4.28.77s2.92-.26,4.3-.77c3.23-1.07,6.34-2.44,9.46-3.74.39-.16.83-.42.83-.83,0-.26-.19-.48-.42-.6-.23-.12-.5-.14-.75-.17-1.25-.12-2.5-.25-3.75-.37s-2.5-.25-3.75-.37c-1.04-.1-2.08-.18-3.12-.3.14.02.31-.04.44-.06,2.93-.43,5.8-.82,8.78-.94,2.96-.12,5.98-.09,8.92.05,1.51.07,3.15.07,4.59-.47.77-.29,2.35-.94,2.74-1.11h-.43c-8.22,0-16.48-1.14-24.69-.59Z"/><path class="cls-1" d="M101.48,22.29L58.94,7.37c-.75-.26-1.54-.39-2.34-.39s-1.59.13-2.34.39L11.72,22.29c-3.17,1.11-5.13,4.33-4.67,7.65l9.08,65.11c.36-.27.71-.49,1.03-.68.44-.25.84-.42,1.21-.56,2.21-.85,3.21-.22,7.75-1.02,2.84-.51,3.73-.98,4.05-1.16,1.75-.99,1.71-1.79,3.49-2.76.82-.45,2.06-.7,4.53-1.2,2.77-.56,3.51-.47,4.1-.08.69.44.63.92,1.37,1.28.87.42,1.51.05,3.03-.16.23-.03.9-.11,1.8-.1v-29.02h5.57v30.4c1.95-.06,2.57-1.99,4.54-1.84.43.03.75.15,1.03.21v-28.77h5.56v27.16c.68.05.74-.01,1.89.16,1.77.26,1.96.59,2.94.48,1.01-.11,1.03-.46,1.76-.42,1.17.08,1.37,1,2.49,1.3,1.36.37,1.76-.78,3.29-.68,1.89.12,1.89,1.91,4,2.21,1.13.17,1.49-.3,3.74-.17.31.02.87.06,1.54.17,1.82.32,2.44.9,3.77,1.36.44.15,2.99.98,5.62.07.07-.02.14-.04.21-.07.24-.09.46-.19.66-.29.21-.1.4-.22.57-.32.01-.01.02-.01.02-.02l8.46-60.58c.46-3.33-1.5-6.55-4.67-7.66ZM42.93,54.03h-9.28v-5.57h9.28v5.57ZM42.93,42.9h-9.28v-5.57h9.28v5.57ZM80.04,54.03h-31.55v-31.54h5.57v25.97h25.98v5.57ZM80.04,42.9h-20.42v-20.41h5.57v14.84h14.85v5.57Z"/><path class="cls-1" d="M103.8,15.7L61.25.79c-3-1.05-6.3-1.05-9.3,0L9.41,15.7C3.12,17.91-.79,24.31.13,30.91l9.62,68.94c.72,5.13,4.18,9.44,9.03,11.24l32.92,12.23c1.58.59,3.24.89,4.9.89s3.32-.3,4.9-.89l32.92-12.23c4.85-1.8,8.31-6.11,9.02-11.24l9.63-68.94c.92-6.6-2.98-13-9.28-15.21ZM111.09,30.63l-9.63,68.94c-.61,4.4-3.58,8.1-7.74,9.64l-32.92,12.23c-2.71,1.02-5.7,1.02-8.4,0l-32.92-12.23c-4.16-1.54-7.13-5.24-7.75-9.64L2.12,30.63c-.79-5.66,2.56-11.15,7.96-13.05L52.62,2.68c1.29-.45,2.64-.67,3.99-.67s2.7.22,3.99.67l42.54,14.91c5.4,1.9,8.75,7.39,7.96,13.05Z"/></g></svg>